<?xml version="1.0" encoding="UTF-8"?>
<svg id="Layer_1" data-name="Layer 1" xmlns="http://www.w3.org/2000/svg" viewBox="0 0 400 460.44">
  <defs>
    <style>
      .cls-1 {
        fill: #efefef;
      }
    </style>
  </defs>
  <path class="cls-1" d="M397.39,261.07l-45.65-26.38c-3.42-1.98-3.42-6.91,0-8.89l45.69-26.38c1.59-.92,2.57-2.61,2.57-4.45v-77.24c0-1.83-.97-3.52-2.55-4.44l-124.69-72.29c-2.54-1.47-6.69-3.87-9.23-5.32L202.48.68c-1.59-.91-3.54-.91-5.12,0L2.57,113.23C.98,114.15,0,115.85,0,117.68l.05,77.25c0,1.83.98,3.52,2.56,4.44l45.65,26.38c3.42,1.98,3.42,6.91,0,8.89l-45.69,26.38c-1.59.92-2.57,2.61-2.57,4.45v77.24c0,1.83.97,3.52,2.56,4.44l124.69,72.29c2.54,1.47,6.69,3.87,9.23,5.32l61.04,35c1.59.91,3.54.91,5.12,0l194.8-112.55c1.59-.92,2.57-2.61,2.57-4.45l-.05-77.25c0-1.83-.98-3.52-2.56-4.44ZM368.1,197.73l-37.59,21.7c-1.59.92-3.54.92-5.13,0l-101.59-58.59c-3.42-1.97-3.43-6.91,0-8.89l37.62-21.76c1.59-.92,3.55-.92,5.14,0l101.56,58.64c3.42,1.98,3.42,6.91,0,8.89ZM248.2,100.98l-37.56-21.69c-1.59-.92-2.57-2.61-2.57-4.44V31.33c-.01-3.95,4.25-6.42,7.67-4.45l37.57,21.55c1.6.91,2.58,2.61,2.58,4.45v43.66c0,3.95-4.28,6.42-7.7,4.45ZM202.57,93.26l37.58,21.7c3.42,1.98,3.42,6.91,0,8.89l-39.62,22.91c-2.54,1.47-4.61,2.67-4.61,2.67s-2.08,1.2-4.62,2.66l-116.72,67.29c-1.59.92-3.54.91-5.13,0l-37.52-21.69c-3.42-1.98-3.42-6.91,0-8.89l165.51-95.54c1.59-.92,3.54-.92,5.13,0ZM304.16,234.7l-101.56,58.54c-1.59.91-3.54.91-5.13,0l-101.63-58.61c-3.43-1.98-3.42-6.92,0-8.89l101.56-58.54c1.59-.91,3.54-.91,5.13,0l101.63,58.62c3.43,1.98,3.42,6.92,0,8.89ZM176.21,308.49l-37.62,21.76c-1.59.92-3.55.92-5.14,0l-101.56-58.64c-3.42-1.98-3.42-6.91,0-8.89l37.59-21.7c1.59-.92,3.54-.92,5.13,0l101.59,58.59c3.42,1.97,3.43,6.91,0,8.89ZM151.8,359.46l37.56,21.69c1.59.92,2.57,2.61,2.57,4.44v43.52c.01,3.95-4.25,6.42-7.67,4.45l-37.57-21.55c-1.6-.91-2.58-2.61-2.58-4.45v-43.66c0-3.95,4.28-6.42,7.7-4.45ZM197.43,367.18l-37.58-21.7c-3.42-1.97-3.42-6.91,0-8.89l39.61-22.91c2.54-1.47,4.61-2.67,4.61-2.67s2.08-1.2,4.62-2.66l116.72-67.28c1.59-.92,3.54-.91,5.13,0l37.53,21.69c3.42,1.98,3.42,6.91,0,8.89l-165.51,95.54c-1.59.92-3.54.92-5.13,0ZM376.16,174.87l-101.57-58.65c-1.59-.92-2.57-2.61-2.57-4.45v-43.64c0-3.96,4.29-6.42,7.71-4.44l101.57,58.89c1.58.92,2.56,2.61,2.56,4.44v43.4c0,3.95-4.28,6.42-7.7,4.44ZM191.93,31.35v43.5c.01,1.83-.97,3.53-2.55,4.45L23.86,174.83c-3.42,1.97-7.7-.49-7.7-4.44l-.02-43.4c0-1.83.98-3.53,2.57-4.45L184.23,26.9c3.42-1.98,7.7.49,7.7,4.44ZM23.83,285.57l101.57,58.65c1.59.92,2.57,2.61,2.57,4.45v43.64c0,3.96-4.29,6.42-7.71,4.44l-101.57-58.89c-1.58-.92-2.56-2.61-2.56-4.44v-43.4c0-3.95,4.28-6.42,7.7-4.45ZM208.07,429.09v-43.5c-.01-1.83.97-3.53,2.55-4.45l165.52-95.54c3.42-1.97,7.7.49,7.7,4.44l.02,43.4c0,1.83-.98,3.53-2.57,4.45l-165.52,95.64c-3.42,1.98-7.7-.49-7.7-4.44Z"/>
</svg>